<svg width="100" height="130" viewBox="0 0 100 130" fill="none" xmlns="http://www.w3.org/2000/svg">
<mask id="mask0_3861_3052" style="mask-type:luminance" maskUnits="userSpaceOnUse" x="26" y="0" width="74" height="110">
<path d="M99.998 0H26.6431V109.003H99.998V0Z" fill="white"/>
</mask>
<g mask="url(#mask0_3861_3052)">
<path d="M52.9575 22.3938C52.9575 17.9258 49.281 14.3009 44.7494 14.3009C40.2178 14.3009 36.5413 17.9258 36.5413 22.3938C36.5413 26.8618 40.2178 30.4867 44.7494 30.4867C49.281 30.4867 52.9575 26.8618 52.9575 22.3938ZM42.9586 45.9372C34.477 32.451 19.8515 13.6963 30.5529 3.88038C36.5355 1.37956 43.117 0 50.0238 0C51.7483 0 53.4498 0.0851581 55.1312 0.252636C73.2115 10.6363 60.2962 20.7304 54.3135 34.8127C46.8021 52.4916 50.6197 63.0626 79.3525 64.9389C71.3603 69.0946 45.5555 71.479 51.0257 88.4028C55.0218 72.1035 86.7401 76.458 86.7401 64.8055C86.7372 52.5597 61.753 61.5836 57.3826 50.7629C49.9748 32.4254 88.2689 13.4266 57.0198 0.482564C81.3074 3.8378 99.998 24.3979 99.998 49.2698C99.998 76.4835 77.6222 98.5424 50.0238 98.5424C49.1054 98.5424 48.1927 98.5168 47.2858 98.4657C46.3156 103.879 46.0334 109.014 46.0334 109.014C44.8761 103.95 44.5104 100.796 44.496 98.2415C44.4874 98.2386 44.4788 98.2386 44.4672 98.2358C44.4788 98.0399 44.4903 97.8412 44.5018 97.6425C44.5306 95.9308 44.712 94.4519 44.902 92.78C44.9538 92.2917 45.0056 91.8007 45.0632 91.3096V91.3067C46.8597 75.6035 51.0602 58.8217 42.9586 45.9372Z" fill="#2923FF"/>
</g>
<mask id="mask1_3861_3052" style="mask-type:luminance" maskUnits="userSpaceOnUse" x="0" y="1" width="44" height="98">
<path d="M43.0234 1.4845H-0.000843048V98.1335H43.0234V1.4845Z" fill="white"/>
</mask>
<g mask="url(#mask1_3861_3052)">
<path d="M16.2234 12.9838C17.5823 4.8852 29.5792 1.75989 29.5792 1.75989C25.871 3.19622 23.0323 7.79761 23.0323 7.79761C17.5362 17.0855 28.6378 32.0876 39.3622 51.3873C46.1855 63.6728 38.6654 83.9717 42.2441 97.9462C18.3395 94.2617 0.048954 73.8748 0.048954 49.2697C0.048954 34.912 6.28494 21.9907 16.2234 12.9838Z" fill="#3B9639"/>
</g>
<path d="M20.707 122.517C20.707 125.174 19.3798 126.934 19.3798 128.487C19.3798 129.884 20.7646 129.781 21.3836 129.781H25.6589C26.2779 129.781 27.6627 129.884 27.6627 128.487C27.6627 127.224 26.3211 125.015 26.3211 122.517C26.3211 121.442 26.3067 119.568 26.3067 118.012C26.3067 115.688 25.4804 115.032 24.7434 115.032C24.3605 115.032 22.7396 115.497 22.017 115.688C20.6926 116.037 19.2617 116.298 19.2617 117.3C19.2617 118.841 20.707 119.321 20.707 122.517ZM23.4766 114.161C24.3461 114.161 27.2798 112.506 27.2798 110.587C27.2798 109.44 26.4248 108.639 25.4516 108.639C24.5534 108.639 23.92 109.264 23.4766 109.789C23.0505 109.264 22.4171 108.639 21.516 108.639C20.5458 108.639 19.6907 109.44 19.6907 110.587C19.6907 112.506 22.6216 114.161 23.4766 114.161Z" fill="#E7A548"/>
<path d="M29.4451 119.321C29.4451 125.552 28.1035 126.105 28.1035 128.459C28.1035 129.884 29.7244 129.781 30.3434 129.781H34.1466C34.7656 129.781 36.3865 129.884 36.3865 128.459C36.3865 126.497 35.4594 125.785 35.1485 121.978H39.2166C38.9057 125.785 37.9786 126.497 37.9786 128.459C37.9786 129.884 39.5995 129.781 40.2185 129.781H44.0217C44.6407 129.781 46.2616 129.884 46.2616 128.459C46.2616 126.105 44.92 125.552 44.92 119.321C44.92 113.088 46.2616 112.534 46.2616 110.181C46.2616 108.756 44.6407 108.858 44.0217 108.858H40.2185C39.5995 108.858 37.9786 108.756 37.9786 110.181C37.9786 112.199 38.9661 112.897 39.2454 117.011H35.1197C35.399 112.897 36.3865 112.199 36.3865 110.181C36.3865 108.756 34.7656 108.858 34.1466 108.858H30.3434C29.7244 108.858 28.1035 108.756 28.1035 110.181C28.1035 112.534 29.4451 113.088 29.4451 119.321Z" fill="#E7A548"/>
<path d="M46.9219 122.518C46.9219 126.25 49.7059 130 54.8795 130C59.0512 130 60.9226 128.518 60.9226 127.196C60.9226 126.352 60.3612 124.871 59.0196 124.871C57.7816 124.871 57.1943 126.148 55.0868 126.148C54.4822 126.148 53.5523 125.961 53.5523 125.495C53.5523 125.322 53.6847 125.291 53.9352 125.291C54.3786 125.291 55.1732 125.407 56.2068 125.089C58.3718 124.419 60.7009 122.997 60.7009 119.611C60.7009 116.559 57.8996 115.032 54.8795 115.032C49.4266 115.032 46.9219 118.824 46.9219 122.518ZM52.6108 120.976C53.1118 119.713 53.9208 118.884 54.6578 118.884C55.3949 118.884 55.559 119.713 55.058 120.976C54.5542 122.225 53.7308 123.054 52.9938 123.054C52.2567 123.054 52.1099 122.225 52.6108 120.976Z" fill="#E7A548"/>
<path d="M61.3613 122.517C61.3613 126.991 64.0446 130 67.3152 130C69.3478 130 69.6299 129.143 70.4821 129.143C71.2796 129.143 71.1903 130 72.3995 130C74.4782 130 76.1279 129.114 76.1279 127.82C76.1279 126.511 75.0079 125.844 75.0079 122.517C75.0079 119.42 76.0099 118.027 76.0099 116.661C76.0099 115.265 74.7287 115.032 74.1097 115.032C73.4158 115.032 72.8861 115.25 71.3688 115.25C70.6318 115.25 70.056 115.018 68.1558 115.032C66.0023 115.049 61.3613 116.457 61.3613 122.517ZM68.2739 118.87C69.0541 118.87 69.5838 120.323 69.5838 122.517C69.5838 124.695 69.0541 126.148 68.2739 126.148C67.4908 126.148 66.961 124.695 66.961 122.517C66.961 120.323 67.4908 118.87 68.2739 118.87Z" fill="#E7A548"/>
<path d="M76.4082 128.487C76.4082 129.883 78.0291 129.781 78.6481 129.781H82.4513C83.0703 129.781 84.6912 129.883 84.6912 128.487C84.6912 126.179 83.3496 126.599 83.3496 119.029C83.3496 112.971 84.6912 112.417 84.6912 110.152C84.6912 108.756 83.0703 108.858 82.4513 108.858H78.6481C78.0291 108.858 76.4082 108.756 76.4082 110.152C76.4082 112.417 77.7498 112.971 77.7498 119.029C77.7498 126.599 76.4082 126.179 76.4082 128.487Z" fill="#E7A548"/>
</svg>
